<?xml version='1.0' encoding='utf-8'?>
<svg xmlns:xlink="http://www.w3.org/1999/xlink" xmlns="http://www.w3.org/2000/svg" enable-background="new 0 0 1600 1600" version="1.1" viewBox="0 0 1600 1600"> <style type="text/css">.st0{fill:#9AB1A8;stroke:#DAEFE7;stroke-width:1.4;stroke-miterlimit:10;} .st1{clip-path:url(#d);} .st2{fill:#388181;} .st3{fill:#1C3434;} .st4{fill:#BDD5D5;} .st5{fill:#566767;}</style> <circle class="st0" cx="800" cy="800" r="800"/> <defs> <circle id="c" cx="800" cy="800" r="800"/> </defs> <clipPath id="d"> <use xlink:href="#c"/> </clipPath> <g class="st1"> <path class="st2" d="m1764.3 707.1s-9 119.1-10.6 119c-57.7-4.4-258.3-27-279.9-8.4-19 16.3-60 47.3-89.8 45.1-10.3 2.8-43.1 16-50.6 22.5-42.1 14.9-10.4-34.3 11.4-39.8 9-2.7 17.9-6 26.4-9.9 47.5-21.1-32.9-23-47-19.7-141.7 45.5-158.8 9-28.7-20.2 6.7-1.5 10.4-0.7 14.4-4.1s4.2-3 4.4-6-2.6-5.4-7.8-5.5c-35.3-0.6-68.5-5.3-103.5-9.7-28-3.5-27.4-26.5-3.2-26.5 38-0.1 76 3.8 116.3 3 9.8-1.5 12.7-10.5-8.9-19.6-128-37.7-107.3-66.1-86.3-60.5 32.5 8.7 62 21.7 101.1 36.1 0 0 12.8 1.7 13-0.8s0-3.2-0.9-4.2c-16.2-18.9-65.1-40.2-67.7-56.7-0.3-2.2 2.7-5.4 4.8-7.2 12.1-10.4 63.8 32 74.7 37.7l13.2 4.6 4 0.3c29.9 3.3 74.8 19.3 97.4 30.6 2.4 0.2 7.7 3.4 10.1 3.5l16.4 1.2c2.1 0.2 41.1 1 41.1 1 78.6-3.3 157.7-7.8 236.3-7"/> <path class="st2" d="m1566.3 1319.5c-63.9-45.8-125-96.2-186.4-145.3 0 0-31.9-22.4-33.7-23.5l-13.9-8.7c-2-1.3-8.2-1.8-10.2-3.1-24.9-4.3-70.6-17.9-96.7-32.9l-3.4-2.1-13.4-4.1c-12.2-1.8-79 1.8-82.6-13.7-0.6-2.7-1.1-7.1 0.4-8.7 11.9-11.8 63.9-0.1 88.2-5.7 1.3-0.3 1.9-0.8 3.2-2.9s-10-8.3-10-8.3c-40.1-11.5-71.5-18.4-102.9-30.6-20.3-7.9-20.1-43 105.4 2.2 22.8 5.4 25.8-3.6 18.8-10.6-32-24.5-64.9-43.8-95.5-66.3-19.5-14.3-6.4-33.2 18.2-19.5 30.9 17.2 60.4 33.1 89.2 53.4 4.2 3 7.9 2.8 9.6 0.2s1.2-2.4 0-7.5-4.7-6.6-9.2-11.8c-87.6-100.5-52.3-119.8 35.1 0.7 9.4 11 75.5 57 49.6 11.9-4.6-8.2-9.8-16.1-15.5-23.6-14.3-17.4-10.8-75.8 14.3-38.9 2.2 9.7 20.9 39.7 27.5 48.1 25.3 15.8 40.1 65 45.8 89.4 6.4 27.9 181.6 128.2 230.7 158.8 1.3 0.8-61.8 102.2-61.8 102.2"/> <path class="st2" d="m640.4-57.3s118.9-11.6 119-10c5.6 57.6 17.8 259.1 39.9 277.2 19.3 15.9 56.9 51 59.8 80.7 4.5 9.6 23.1 39.7 30.9 46 22 38.9-32 16.2-41.2-4.4-4.2-8.4-9-16.6-14.3-24.4-28.9-43.2-17 36.4-11.4 49.7 69.2 131.8 36.2 154.8-15 31.8-2.7-6.3-2.5-10.1-6.5-13.4s-3.7-3.6-6.7-3.3-4.8 3.5-4.1 8.6c5.4 34.9 6.6 68.4 8.3 103.7 1.4 28.2-21.4 31.5-25.5 7.7-6.6-37.4-9.3-75.5-17-115-3.1-9.4-12.5-10.7-17.8 12.1-15.1 132.4-46.6 117-44.8 95.4 2.9-33.5 10.7-64.8 18.2-105.8 0 0-0.5-12.9-3-12.7s-3.2 0.6-4 1.6c-15.8 19.2-28.4 71-44.2 76.5-2.1 0.7-5.8-1.8-7.9-3.5-12.3-10.1 20.6-68.4 24.3-80.1l2.3-13.8-0.4-4c-1.9-30 6.2-77 13.4-101.2-0.2-2.4 2-8.2 1.8-10.5l-1.6-16.3c-0.2-2.1-6.1-40.6-6.1-40.6-16.7-76.8-34.8-154-47.5-231.6"/> <path class="st2" d="m1277.8 32.5c-34.1 70.8-73.3 139.7-111.1 208.6 0 0-16.5 35.3-17.3 37.2l-6.2 15.2c-0.9 2.2-0.4 8.4-1.3 10.6 0 25.3-5.5 72.6-15.8 100.9l-1.5 3.7-1.7 13.9c0.3 12.3 15.3 77.5 0.7 83.7-2.5 1.1-6.8 2.3-8.6 1.1-13.7-9.7-11.1-62.9-20.8-85.9-0.5-1.2-1.2-1.8-3.4-2.7s-6.5 11.3-6.5 11.3c-4.4 41.5-5.8 73.6-12.5 106.6-4.3 21.3-38.9 27.2-16-104.2 1.4-23.4-8-24.8-13.7-16.6-18.6 35.7-32 71.5-48.9 105.5-10.8 21.7-31.6 12.1-22.3-14.6 11.6-33.4 22.2-65.2 37.3-97.1 2.2-4.7 1.4-8.3-1.5-9.4s-2.6-0.8-7.4 1.3-5.7 5.8-10 11.1c-83.9 103.6-109 72.2-5.4-34.7 9.2-11.2 43.2-84.2 3.2-50.9-7.3 6-14.2 12.4-20.6 19.3-14.7 17.1-72.8 23.7-40.8-7.4 9.2-3.8 35.5-27.4 42.6-35.4 11.2-27.7 57.2-50.7 80.2-60.4 26.4-11.1 95-200.9 116.7-254.6 0.6-1.4 111.3 43.3 111.3 43.3"/> <path class="st2" d="m963.2 1706.3s-118.9 11.6-119 10c-5.6-57.6-17.8-259.1-39.9-277.2-19.3-15.9-56.9-50.9-59.8-80.7-4.5-9.7-23.1-39.7-30.9-46-22-38.9 32-16.2 41.2 4.4 4.2 8.4 9 16.6 14.3 24.3 28.9 43.2 17-36.4 11.4-49.7-69.2-131.8-36.2-154.8 15-31.8 2.7 6.3 2.5 10.1 6.5 13.4s3.7 3.6 6.7 3.3 4.8-3.5 4.1-8.6c-5.4-34.8-6.6-68.4-8.3-103.7-1.4-28.2 21.4-31.5 25.5-7.7 6.6 37.4 9.3 75.5 17 115 3.1 9.4 12.5 10.7 17.8-12.1 15.1-132.4 46.6-117 44.8-95.3-2.9 33.5-10.7 64.8-18.2 105.8 0 0 0.5 12.9 3 12.7s3.2-0.6 4-1.6c15.8-19.2 28.4-71 44.2-76.5 2.1-0.7 5.8 1.8 7.9 3.5 12.3 10.1-20.6 68.3-24.3 80.1l-2.2 13.8 0.4 3.9c1.9 30-6.2 77-13.4 101.2 0.2 2.4-2 8.2-1.8 10.5l1.6 16.3c0.2 2.1 6.1 40.6 6.1 40.6 16.8 76.8 34.8 154 47.5 231.5"/> <path class="st2" d="m325.9 1616.6c34.1-70.8 73.3-139.7 111.1-208.6 0 0 16.5-35.3 17.3-37.2l6.1-15.2c0.9-2.2 0.4-8.4 1.3-10.6 0-25.3 5.5-72.6 15.8-100.9l1.5-3.7 1.7-13.9c-0.3-12.3-15.3-77.5-0.7-83.7 2.5-1.1 6.8-2.3 8.6-1.1 13.7 9.7 11 62.9 20.8 85.8 0.5 1.2 1.2 1.8 3.4 2.7s6.5-11.3 6.5-11.3c4.4-41.5 5.8-73.6 12.5-106.6 4.3-21.3 38.9-27.2 16 104.2-1.4 23.4 8 24.8 13.7 16.7 18.6-35.7 32-71.5 48.9-105.5 10.8-21.7 31.6-12.1 22.3 14.6-11.6 33.4-22.2 65.2-37.3 97.1-2.2 4.7-1.4 8.3 1.5 9.4s2.6 0.8 7.4-1.3 5.7-5.8 10-11.1c83.9-103.6 109-72.2 5.4 34.7-9.2 11.2-43.2 84.2-3.2 50.9 7.3-6 14.2-12.4 20.6-19.3 14.7-17.1 72.8-23.7 40.8 7.4-9.2 3.8-35.5 27.4-42.6 35.4-11.2 27.7-57.2 50.7-80.2 60.4-26.4 11.1-95 200.9-116.7 254.6-0.6 1.4-111.4-43.3-111.4-43.3"/> <path class="st2" d="m-144.7 810.3s9-119.1 10.6-119c57.7 4.4 258.3 27 279.9 8.4 19-16.3 60-47.3 89.8-45.1 10.3-2.8 43.1-16 50.6-22.5 42.1-14.9 10.4 34.3-11.4 39.8-9 2.7-17.9 6-26.4 9.9-47.5 21.1 32.9 23 47 19.7 141.7-45.5 158.8-9 28.7 20.2-6.7 1.5-10.4 0.7-14.4 4.1s-4.2 3-4.4 6 2.6 5.4 7.8 5.5c35.3 0.6 68.5 5.3 103.5 9.7 28 3.5 27.4 26.5 3.2 26.5-38 0.1-76-3.8-116.3-3-9.8 1.5-12.7 10.5 8.9 19.6 128 37.7 107.3 66.1 86.3 60.5-32.5-8.7-62-21.7-101.1-36.1 0 0-12.8-1.7-13 0.8s0 3.2 0.9 4.2c16.2 18.9 65.1 40.2 67.7 56.7 0.3 2.2-2.7 5.4-4.8 7.2-12.1 10.4-63.8-32-74.7-37.7l-13.2-4.6-4-0.3c-29.9-3.3-74.8-19.3-97.4-30.6-2.4-0.2-7.7-3.4-10.1-3.5l-16.4-1.2c-2.1-0.2-41.1-1-41.1-1-78.6 3.3-157.7 7.8-236.3 7"/> <path class="st2" d="m53.3 197.8c63.9 45.8 125 96.2 186.4 145.3 0 0 31.9 22.4 33.7 23.5l13.9 8.7c2 1.3 8.2 1.8 10.2 3.1 24.9 4.3 70.6 17.9 96.7 32.9l3.4 2.1 13.4 4.1c12.2 1.9 79-1.8 82.6 13.7 0.6 2.7 1.1 7.1-0.4 8.7-11.9 11.8-63.9 0.1-88.1 5.7-1.3 0.3-1.9 0.9-3.2 2.9s10 8.3 10 8.3c40.1 11.5 71.5 18.4 102.9 30.6 20.3 7.9 20.1 43-105.4-2.2-22.8-5.4-25.8 3.6-18.8 10.6 32 24.5 64.9 43.8 95.5 66.3 19.5 14.3 6.5 33.2-18.2 19.5-30.9-17.2-60.4-33.1-89.2-53.4-4.2-3-7.9-2.8-9.5-0.2s-1.2 2.4 0 7.5 4.7 6.6 9.2 11.8c87.6 100.5 52.4 119.8-35.1-0.7-9.5-11-75.5-57-49.6-11.9 4.6 8.2 9.8 16.1 15.5 23.7 14.4 17.4 10.8 75.8-14.3 38.9-2.2-9.7-20.9-39.7-27.5-48.1-25.4-15.8-40.1-65-45.8-89.4-6.6-27.9-181.7-128.2-230.9-158.8-1.3-0.8 61.8-102.2 61.8-102.2"/> <path class="st3" d="m1433.8 1540.1s-102.6 61.2-103.4 59.9c-29.7-49.7-126.7-226.7-154.4-233.7-24.3-6.1-73.2-21.8-88.5-47.4-8.2-6.8-37.9-26-47.6-28.4-36.5-25.8 22-28.3 39.1-13.6 7.4 5.8 15.2 11.1 23.3 15.9 44.6 26.7-0.2-40.2-11-49.8-118.8-89.7-98.8-124.6 0-35.1 5.1 4.6 6.6 8.1 11.6 9.4s4.9 1.7 7.5 0.1 2.9-5.3 0-9.6c-19.8-29.2-35.1-59-51.7-90.2-13.3-24.9 5.9-37.6 19.8-17.8 22 31 40.6 64.3 64.5 96.8 6.9 7.2 15.9 4.3 10.9-18.6-42.9-126.3-7.8-125.8-0.2-105.4 11.7 31.6 17.9 63.2 28.7 103.4 0 0 6 11.5 8.1 10.2s2.6-1.9 2.9-3.2c6.1-24.1-4.7-76.3 7.4-88 1.6-1.5 6-0.9 8.7-0.2 15.4 3.9 10.6 70.6 12.2 82.8l3.9 13.5 2 3.4c14.5 26.3 27.3 72.3 31.1 97.3 1.2 2.1 1.7 8.2 2.9 10.3l8.4 14.1c1.1 1.8 22.8 34.1 22.8 34.1 47.9 62.3 97.2 124.4 141.8 189.1"/> <path class="st3" d="m819.1 1731c0.6-78.6 6.6-157.6 11.4-236.1 0 0-0.1-39-0.2-41.1l-0.9-16.4c-0.1-2.4-3.2-7.8-3.3-10.2-10.8-22.8-26-68-28.8-98l-0.2-4-4.4-13.3c-5.5-11-46.9-63.5-36.3-75.4 1.8-2 5.2-5 7.3-4.7 16.5 2.9 36.9 52.2 55.4 68.8 1 0.9 1.8 1.1 4.2 1s1-13 1-13c-13.7-39.4-26.2-69-34.2-101.7-5.2-21.1 23.6-41.2 58.9 87.4 8.7 21.8 17.8 19 19.5 9.2 1.6-40.3-1.6-78.3-0.8-116.3 0.5-24.2 23.5-24.4 26.4 3.7 3.8 35.2 7.8 68.4 7.8 103.7 0 5.2 2.3 8.1 5.3 7.9s2.7-0.4 6.1-4.3 2.7-7.6 4.4-14.3c31.7-129.5 67.8-111.8 19.7 29.1-3.5 14.1-3.1 94.5 18.9 47.4 4-8.5 7.5-17.3 10.4-26.3 6-21.8 55.7-52.5 40-10.7-6.7 7.4-20.4 39.9-23.5 50.2 1.7 29.8-30.1 70.2-46.7 88.9-19.1 21.3-0.2 222.3 3.1 280 0.1 1.6-119.2 8.4-119.2 8.4"/> <path class="st3" d="m1411.2 181.1s78 90.5 76.8 91.5c-43.9 37.8-201.6 163.8-203.6 192.3-1.9 25-8.9 75.9-31.5 95.4-5.3 9.3-19.1 41.8-19.8 51.7-19.2 40.3-31.6-16.8-20.1-36.2 4.4-8.3 8.3-16.9 11.7-25.7 18.7-48.5-39.6 7-47.2 19.4-67.9 132.5-105.7 118.8-34.6 6 3.6-5.8 6.9-7.9 7.3-13.1s0.8-5.1-1.2-7.4-5.7-1.9-9.4 1.7c-25.4 24.5-52.1 44.8-80 66.5-22.3 17.4-38.1 0.7-21-16.5 26.8-27 56.4-51.1 84.2-80.2 5.9-8 1.6-16.4-20.2-7.6-117.1 64-122.6 29.3-103.8 18.3 29.1-16.9 59.1-28.5 97-46 0 0 10.3-7.9 8.6-9.8s-2.3-2.3-3.6-2.4c-24.8-1.9-74.4 17.7-88 7.9-1.7-1.3-1.9-5.8-1.7-8.5 1.2-15.9 67.7-22.5 79.5-26.2l12.6-6.1 3-2.6c23.4-18.8 66.5-39.3 90.5-47.4 1.8-1.6 7.8-3.1 9.6-4.6l12.4-10.7c1.6-1.4 29.7-28.4 29.7-28.4 53.1-57.9 105.8-117.2 161.9-172.2"/> <path class="st3" d="m1705 753.8c-77.5 12.9-156.4 20.6-234.5 29.4 0 0-38.4 6.8-40.4 7.3l-16 3.7c-2.3 0.5-7.1 4.5-9.4 5-20.6 14.6-62.6 37.3-91.6 45.2l-3.9 0.9-12.4 6.6c-9.9 7.3-54.5 57.2-68 48.8-2.3-1.4-5.8-4.2-5.8-6.4 0.1-16.8 45.1-45.3 58.2-66.4 0.7-1.1 0.8-2 0.2-4.3s-13 1.2-13 1.2c-36.4 20.3-63.5 37.7-94.3 51.2-19.9 8.7-44.7-16.2 76-73 19.9-12.3 15.7-20.8 5.8-20.8-39.9 5.4-76.9 15-114.4 20.8-23.9 3.7-28.1-18.9-0.9-26.7 34-9.7 66.1-19.4 100.8-25.5 5.1-0.9 7.6-3.7 6.9-6.6s-0.9-2.5-5.3-5.3-8-1.3-14.8-1.8c-133-8.9-121.8-47.5 25.3-24.4 14.4 1.1 93.7-13.2 43.4-26.7-9.1-2.5-18.3-4.4-27.7-5.7-22.5-2.1-61.3-45.9-17.4-37.6 8.4 5.3 42.9 13.3 53.5 14.5 29.1-6.8 74.3 17.5 95.6 30.8 24.3 15.2 219-38 275.3-51.2 1.5-0.4 28.7 116 28.7 116"/> <path class="st3" d="m155.5 1460.8s-78-90.5-76.8-91.5c43.9-37.8 201.6-163.8 203.6-192.3 1.9-25 8.9-75.9 31.5-95.4 5.3-9.3 19.1-41.8 19.8-51.7 19.1-40.3 31.6 16.8 20.1 36.2-4.4 8.3-8.3 16.9-11.7 25.7-18.6 48.6 39.5-7.1 47.2-19.4 67.9-132.4 105.8-118.8 34.6-6-3.6 5.8-6.9 7.9-7.3 13.1s-0.8 5.1 1.1 7.4 5.7 1.9 9.4-1.7c25.4-24.5 52.1-44.8 80-66.5 22.3-17.4 38.1-0.7 21 16.5-26.8 27-56.4 51.1-84.2 80.2-5.9 8-1.5 16.4 20.1 7.6 117.1-64 122.6-29.3 103.8-18.3-29.1 16.9-59.1 28.5-97 46 0 0-10.3 7.9-8.6 9.8s2.3 2.3 3.6 2.4c24.8 1.8 74.4-17.7 88-7.9 1.7 1.3 1.9 5.8 1.7 8.5-1.2 15.9-67.7 22.5-79.5 26.2l-12.6 6.1-3 2.6c-23.4 18.8-66.5 39.3-90.5 47.4-1.8 1.6-7.8 3.1-9.6 4.6l-12.4 10.7c-1.6 1.4-29.7 28.4-29.7 28.4-53.1 57.9-105.8 117.2-161.9 172.2"/> <path class="st3" d="m-138.3 888.1c77.5-12.9 156.4-20.6 234.5-29.4 0 0 38.4-6.8 40.4-7.3l16-3.7c2.3-0.5 7.1-4.5 9.4-5 20.6-14.6 62.6-37.3 91.6-45.2l3.9-0.9 12.4-6.6c9.9-7.3 54.5-57.2 68-48.8 2.3 1.4 5.8 4.2 5.9 6.4 0 16.8-45.1 45.3-58.2 66.4-0.7 1.1-0.8 2-0.2 4.3s13-1.2 13-1.2c36.4-20.3 63.5-37.7 94.3-51.2 19.9-8.7 44.7 16.2-76 73-19.9 12.3-15.7 20.8-5.8 20.8 39.9-5.4 76.9-15 114.4-20.8 23.9-3.7 28.1 18.9 0.9 26.7-34 9.7-66.1 19.4-100.8 25.5-5.1 0.9-7.6 3.7-6.9 6.6s0.9 2.5 5.3 5.3 8 1.3 14.8 1.8c133 8.9 121.8 47.5-25.3 24.4-14.4-1.1-93.6 13.2-43.4 26.7 9.1 2.5 18.3 4.4 27.7 5.7 22.5 2.1 61.3 45.9 17.4 37.6-8.4-5.3-42.9-13.3-53.5-14.5-29.1 6.8-74.4-17.5-95.6-30.8-24.3-15.2-219 38-275.3 51.2-1.5 0.4-28.7-116-28.7-116"/> <path class="st3" d="m249.8 39s102.6-61.3 103.4-59.9c29.7 49.7 126.6 226.7 154.4 233.6 24.3 6.1 73.2 21.8 88.5 47.4 8.2 6.8 37.9 26 47.5 28.4 36.5 25.8-22 28.3-39.1 13.6-7.4-5.8-15.2-11.1-23.3-15.9-44.6-26.7 0.2 40.2 11 49.8 118.8 89.7 98.8 124.6 0 35.1-5.1-4.6-6.6-8.1-11.6-9.4s-4.9-1.7-7.5-0.1-2.9 5.3 0 9.5c19.8 29.2 35.1 59 51.7 90.2 13.2 24.9-5.9 37.6-19.8 17.8-22-31-40.6-64.3-64.5-96.8-6.9-7.2-15.9-4.4-10.9 18.5 42.9 126.3 7.8 125.8 0.2 105.4-11.7-31.6-18-63.1-28.8-103.4 0 0-6-11.5-8.1-10.2s-2.6 1.9-2.9 3.2c-6.1 24.1 4.7 76.3-7.4 88-1.6 1.5-6 0.9-8.7 0.2-15.4-3.9-10.6-70.6-12.2-82.8l-3.9-13.5-2-3.4c-14.5-26.3-27.3-72.3-31.1-97.3-1.2-2.1-1.7-8.2-2.9-10.3l-8.4-14.1c-1.1-1.8-22.9-34.1-22.9-34.1-48-62.3-97.3-124.4-141.8-189.1"/> <path class="st3" d="m864.5-152c-0.6 78.6-6.6 157.6-11.4 236.1 0 0 0.1 39 0.2 41.1l0.9 16.4c0.1 2.4 3.2 7.8 3.3 10.1 10.8 22.8 26 68 28.8 98l0.2 4 4.4 13.3c5.5 11 46.9 63.5 36.3 75.4-1.8 2-5.2 5-7.3 4.7-16.5-2.9-36.9-52.2-55.4-68.8-1-0.9-1.8-1.1-4.2-1s-1 13-1 13c13.7 39.4 26.2 69 34.2 101.7 5.2 21.1-23.6 41.2-58.9-87.4-8.7-21.8-17.8-19-19.5-9.2-1.6 40.3 1.6 78.3 0.8 116.3-0.5 24.2-23.5 24.4-26.4-3.7-3.8-35.1-7.8-68.4-7.8-103.7 0-5.2-2.3-8.1-5.3-7.9s-2.7 0.4-6.1 4.3-2.7 7.6-4.4 14.3c-31.7 129.5-67.8 111.8-19.7-29.1 3.5-14 3.1-94.5-18.9-47.4-4.1 8.5-7.5 17.3-10.4 26.3-6 21.8-55.7 52.5-40 10.7 6.7-7.4 20.4-39.9 23.5-50.2-1.7-29.8 30.1-70.2 46.7-88.9 19.1-21.3 0.2-222.3-3.1-280-0.1-1.6 119.2-8.4 119.2-8.4"/> <path class="st4" d="m1713 915.5s-37.7 113.4-39.1 112.9c-54.9-18.2-244-88.9-269.5-76-22.4 11.2-69.7 31.4-98 22-10.7 0.3-45.7 5-54.6 9.6-44.4 4.3-1.8-35.8 20.7-35.8 9.4-0.5 18.8-1.5 28.1-3.2 51.2-8.9-26.4-30.3-40.8-30.6-148.5 9.7-156.2-29.7-22.9-26.6 6.8 0.1 10.3 1.8 14.9-0.5s4.8-1.9 5.8-4.8-1.3-5.9-6.3-7.2c-34.1-9.2-65.2-21.7-98.1-34.5-26.3-10.2-20.2-32.3 3.3-26.5 36.9 9.1 72.8 22.1 112.1 31.1 9.9 1 14.9-7.1-3.8-21.2-115-67.6-88.1-90.1-69-79.6 29.5 16.3 54.8 36.1 89.3 59.6 0 0 12 4.8 12.8 2.4s0.8-3.2 0.2-4.3c-11.2-22.3-53.4-54.7-51.9-71.4 0.2-2.2 4-4.6 6.4-5.8 14.2-7.1 54.1 46.5 63.3 54.7l11.7 7.7 3.8 1.3c28.2 10.4 67.9 36.9 87.1 53.3 2.3 0.8 6.7 5.1 8.9 5.9l15.6 5.2c2 0.7 39.6 10.9 39.6 10.9 77 15.8 154.8 30.6 230.9 50.5"/> <path class="st4" d="m1372.4 1461.6c-50.9-59.9-98-123.7-145.6-186.2 0 0-25.5-29.4-27-31l-11.4-11.8c-1.7-1.7-7.5-3.8-9.2-5.5-23.1-10.2-64.2-34.5-85.8-55.4l-2.8-2.8-12-7.2c-11.4-4.8-77-17.4-76.8-33.3 0-2.7 0.6-7.2 2.5-8.3 14.4-8.6 62 15.4 86.9 15.8 1.3 0 2.1-0.4 3.8-2s-7.7-10.5-7.7-10.5c-36.1-20.9-64.9-35.2-92.4-54.7-17.7-12.6-9.1-46.6 101.7 27.7 20.8 10.8 25.9 2.8 20.8-5.7-25.1-31.5-52.4-58.2-76.6-87.5-15.5-18.6 1.8-33.8 22.4-14.5 25.8 24.2 50.6 46.7 73.6 73.4 3.4 3.9 7 4.6 9.2 2.5s1.7-2.1 1.8-7.3-2.9-7.6-6-13.7c-60.6-118.7-21.7-128.9 33.9 9.2 6.5 12.9 59.4 73.6 45.2 23.6-2.5-9.1-5.6-18-9.3-26.7-9.7-20.4 7.9-76.1 23.3-34.2-0.2 10 10.6 43.6 15 53.3 20.8 21.5 23.1 72.8 22.7 97.8-0.5 28.6 145.1 168.4 185.3 210 1.1 1.1-84.8 84.2-84.8 84.2"/> <path class="st4" d="m808-98.7s118.2 17.6 118 19.1c-8.5 57.3-45.6 255.6-28.5 278.6 14.9 20.1 42.9 63.2 38.5 92.8 2.1 10.5 12.8 44.1 18.8 52.1 11.9 43-34.9 7.9-38.9-14.3-2.1-9.2-4.7-18.3-8-27.1-17.6-48.9-25.3 31.2-23.1 45.5 35.1 144.6-2.4 159-22.2 27.2-1-6.8 0.1-10.4-3-14.6s-2.7-4.4-5.7-4.9-5.5 2.3-6 7.4c-3.2 35.1-10.2 67.9-17.1 102.6-5.5 27.7-28.4 25.4-26.7 1.3 2.7-37.9 9.3-75.5 11.3-115.7-0.8-9.9-9.6-13.4-20.2 7.4-46.8 124.9-73.7 102.3-66.6 81.7 11-31.8 26.1-60.2 43.3-98.2 0 0 2.6-12.7 0.2-13s-3.2-0.2-4.3 0.6c-20 14.8-44.7 62-61.5 63.5-2.2 0.1-5.2-3.1-6.8-5.3-9.5-12.8 36.5-61.3 43-71.8l5.4-12.9 0.6-3.9c5.4-29.6 24.7-73.2 37.5-95 0.3-2.4 3.9-7.4 4.3-9.8l2.4-16.2c0.3-2.1 3.9-40.9 3.9-40.9 2.4-78.6 3.5-157.8 10.1-236.1"/> <path class="st4" d="m1404.6 143c-50.3 60.4-105 117.8-158.4 175.5 0 0-24.6 30.2-25.8 31.9l-9.7 13.3c-1.4 1.9-2.4 8-3.8 10-6.1 24.5-23 69.1-39.8 94l-2.3 3.2-5.1 13.1c-2.7 12-3.9 78.9-19.6 81.4-2.7 0.4-7.2 0.6-8.6-1-10.9-12.7 4.5-63.7 0.7-88.3-0.2-1.3-0.7-2-2.7-3.4s-9 9.4-9 9.4c-14.3 39.2-23.5 70-38 100.4-9.4 19.6-44.4 17 9.8-104.9 7-22.4-1.7-26-9.2-19.5-26.7 30.1-48.4 61.6-73 90.5-15.7 18.4-33.6 4-18.1-19.6 19.4-29.6 37.3-57.9 59.7-85.2 3.3-4 3.3-7.7 0.9-9.5s-2.3-1.4-7.5-0.5-6.9 4.2-12.4 8.3c-106.7 79.9-123.4 43.4 3.1-35.1 11.6-8.6 62.3-71.2 15.4-48.6-8.5 4-16.8 8.6-24.7 13.7-18.4 13.1-76.4 5.3-37.7-17.1 9.9-1.5 41.1-18 49.9-24 17.6-24.1 67.8-35.3 92.5-39.2 28.3-4.4 140.9-171.9 175-218.7 0.9-1.3 97.5 69 97.5 69"/> <path class="st4" d="m693.5 1690.6s-118.2-17.6-117.9-19.1c8.5-57.3 45.6-255.7 28.5-278.6-14.9-20.1-42.9-63.2-38.5-92.8-2.1-10.5-12.8-44.1-18.8-52.1-11.9-43.1 34.9-7.9 38.9 14.3 2.1 9.2 4.7 18.3 8 27.1 17.6 48.9 25.3-31.2 23.1-45.5-35.1-144.7 2.4-159 22.2-27.2 1 6.8-0.1 10.4 3 14.6s2.7 4.4 5.7 4.9 5.5-2.3 6-7.4c3.2-35.1 10.2-67.9 17.1-102.6 5.5-27.7 28.4-25.4 26.7-1.3-2.7 37.9-9.3 75.5-11.3 115.7 0.8 9.9 9.6 13.4 20.2-7.4 46.8-124.9 73.7-102.3 66.6-81.7-11 31.8-26.1 60.2-43.3 98.2 0 0-2.6 12.7-0.2 13s3.2 0.2 4.3-0.6c20-14.8 44.7-62 61.5-63.4 2.2-0.1 5.2 3.1 6.8 5.3 9.5 12.8-36.5 61.3-43 71.8l-5.5 12.9-0.6 3.9c-5.4 29.6-24.7 73.2-37.5 95-0.3 2.4-3.9 7.4-4.3 9.8l-2.4 16.2c-0.3 2.1-3.9 40.9-3.9 40.9-2.4 78.6-3.5 157.8-10.1 236.2"/> <path class="st4" d="m96.9 1449c50.3-60.4 105-117.8 158.4-175.5 0 0 24.6-30.2 25.8-31.9l9.6-13.3c1.4-1.9 2.4-8 3.8-10 6.1-24.5 23-69.1 39.8-94l2.3-3.2 5.1-13.1c2.7-12 3.9-78.9 19.6-81.3 2.7-0.4 7.2-0.6 8.6 1 10.9 12.7-4.5 63.7-0.7 88.3 0.2 1.3 0.7 2 2.6 3.4s9-9.4 9-9.4c14.4-39.2 23.5-70 38-100.4 9.4-19.6 44.4-17-9.8 104.9-7 22.4 1.7 26 9.2 19.5 26.7-30.1 48.4-61.6 73-90.5 15.7-18.4 33.6-4 18.1 19.6-19.4 29.6-37.3 57.9-59.7 85.2-3.3 4-3.3 7.7-0.9 9.5s2.3 1.3 7.5 0.5 6.9-4.2 12.4-8.3c106.5-80.1 123.3-43.6-3.2 34.9-11.6 8.6-62.3 71.2-15.4 48.6 8.5-4 16.8-8.6 24.7-13.8 18.4-13.1 76.4-5.3 37.7 17.1-9.9 1.5-41.1 18-49.9 24-17.6 24.2-67.8 35.3-92.5 39.2-28.3 4.4-140.9 171.9-175 218.7-0.9 1.3-97.5-69-97.5-69"/> <path class="st4" d="m-164.1 552.5s37.7-113.4 39.1-112.9c54.9 18.2 244 88.9 269.5 76 22.4-11.2 69.7-31.4 98-22 10.7-0.3 45.7-5 54.6-9.6 44.5-4.3 1.8 35.8-20.7 35.8-9.4 0.5-18.8 1.5-28.1 3.2-51.2 8.9 26.4 30.3 40.9 30.6 148.5-9.7 156.2 29.7 22.9 26.6-6.9-0.1-10.3-1.8-14.9 0.5s-4.8 1.9-5.8 4.8 1.3 5.9 6.3 7.2c34.1 9.2 65.1 21.7 98.1 34.5 26.3 10.2 20.1 32.3-3.4 26.5-36.9-9.1-72.8-22.1-112.1-31.1-9.9-1-14.9 7.1 3.8 21.2 115 67.6 88.1 90.1 69 79.6-29.4-16.3-54.8-36.1-89.3-59.5 0 0-12-4.8-12.8-2.4s-0.8 3.2-0.2 4.3c11.2 22.3 53.4 54.7 51.9 71.4-0.2 2.2-4 4.6-6.4 5.8-14.2 7.1-54.1-46.5-63.3-54.7l-11.7-7.7-3.8-1.3c-28.2-10.4-67.9-36.9-87.1-53.3-2.3-0.8-6.7-5.1-8.9-5.9l-15.6-5.2c-2-0.7-39.6-10.9-39.6-10.9-77-15.8-154.9-30.6-230.9-50.5"/> <path class="st4" d="m176.6 6.4c50.9 59.9 98 123.7 145.6 186.2 0 0 25.5 29.4 27 31l11.4 11.8c1.7 1.7 7.5 3.8 9.2 5.5 23.1 10.2 64.2 34.5 85.8 55.4l2.8 2.9 12 7.2c11.4 4.8 77 17.4 76.8 33.3 0 2.7-0.6 7.2-2.5 8.3-14.4 8.6-62-15.4-86.9-15.8-1.3 0-2.1 0.4-3.8 2s7.7 10.5 7.7 10.5c36.1 20.9 64.9 35.2 92.4 54.7 17.7 12.6 9.1 46.6-101.7-27.7-20.8-10.8-25.9-2.8-20.8 5.7 25.1 31.5 52.4 58.2 76.6 87.5 15.5 18.6-1.8 33.8-22.4 14.5-25.8-24.2-50.6-46.7-73.6-73.4-3.4-3.9-7-4.6-9.2-2.5s-1.7 2.1-1.8 7.3 2.9 7.5 6 13.7c60.7 118.7 21.8 128.9-33.8-9.2-6.5-13-59.4-73.6-45.2-23.6 2.5 9.1 5.6 18 9.3 26.7 9.7 20.4-7.9 76.1-23.3 34.2 0.2-10-10.6-43.6-15-53.3-20.8-21.5-23.1-72.8-22.7-97.8 0.5-28.6-145.1-168.4-185.3-210-1.1-1.1 84.8-84.2 84.8-84.2"/> <path class="st5" d="m1586.6 257.4s50.1 108.5 48.7 109.1c-52.6 24.3-238.8 102-248.6 128.9-8.7 23.5-29.4 70.5-56.5 83-7.6 7.5-29.9 34.9-33.3 44.3-29.5 33.5-25.8-24.8-9.4-40.3 6.6-6.8 12.7-14 18.3-21.5 31.3-41.5-40-4.1-50.7 5.6-101.7 108.7-134.3 85.2-34.9-3.7 5.1-4.6 8.8-5.7 10.6-10.6s2.2-4.7 0.9-7.4-4.9-3.4-9.5-1c-31.1 16.6-62.4 28.7-95.2 41.9-26.2 10.6-36.8-9.8-15.7-21.6 33.2-18.6 68.2-33.6 103-54 7.9-6.1 6-15.4-17.3-12.8-130.1 29.3-125.9-5.5-104.8-10.9 32.6-8.3 64.7-11.2 105.9-17.6 0 0 12-4.7 11-7s-1.6-2.8-2.8-3.3c-23.4-8.6-76.4-3.4-86.8-16.6-1.3-1.7-0.3-6.1 0.7-8.6 5.5-14.9 71.3-3.1 83.6-3.4l13.8-2.4 3.6-1.7c27.7-11.7 74.8-19.5 100-20.7 2.2-1 8.4-0.8 10.5-1.8l14.9-6.9c1.9-0.9 36.3-19.1 36.3-19.1 67-41.1 133.9-83.6 203-121.1"/> <path class="st5" d="m1711.6 888.8c-78.1-8.9-156-23.2-233.6-36.2 0 0-38.8-4-40.9-4.1l-16.4-0.8c-2.4-0.1-8.1 2.4-10.4 2.3-23.8 8.3-70.4 18.7-100.5 18.3l-4-0.2-13.7 2.9c-11.6 4.3-68.1 40-78.8 28.2-1.8-2-4.4-5.7-3.9-7.8 4.7-16.1 55.8-31.2 74.2-47.9 1-0.9 1.3-1.7 1.4-4.1s-12.8-2.4-12.8-2.4c-40.6 9.5-71.4 18.8-104.8 23.3-21.6 2.9-38.5-27.8 93.1-49.4 22.6-6.4 20.8-15.7 11.2-18.4-39.9-5.8-78-6.7-115.7-11.5-24-3-21.8-25.9 6.4-25.9 35.3 0 68.9-0.5 103.9 3.2 5.1 0.5 8.3-1.4 8.4-4.5s-0.2-2.7-3.7-6.5-7.3-3.5-13.7-5.8c-125.4-45.2-104-79.2 31-16.5 13.6 5 93.7 13.1 49.1-13.8-8-4.9-16.4-9.3-25-13.1-21-8.2-46.3-61-6.4-40.9 6.7 7.4 37.6 24.5 47.4 28.6 29.8 1.5 66.7 37.3 83.5 55.8 19.2 21.2 221 23.6 278.8 26.4 1.6 0.1-4.3 119.4-4.3 119.4"/> <path class="st5" d="m232.7 136.6s98.2-68 99.1-66.7c33 47.6 141.6 217.7 169.8 222.8 24.6 4.5 74.5 16.8 91.5 41.4 8.7 6.2 39.5 23.4 49.3 25.1 38.1 23.3-20 29.7-38.1 16.2-7.8-5.3-15.9-10.1-24.3-14.3-46.3-23.7 2.8 40.1 14.3 49 124.6 81.5 107 117.7 2.4 35-5.4-4.2-7.1-7.6-12.2-8.6s-5-1.4-7.5 0.4-2.5 5.4 0.7 9.5c21.7 27.8 39 56.5 57.7 86.5 14.9 24-3.3 38-18.6 19.1-24-29.5-44.9-61.4-70.9-92.2-7.3-6.7-16.2-3.3-9.7 19.2 51.3 123.2 16.2 125 7.3 105.1-13.8-30.7-22.2-61.8-35.6-101.3 0 0-6.7-11-8.8-9.6s-2.5 2.1-2.7 3.4c-4.5 24.5 9.8 75.8-1.4 88.3-1.5 1.6-5.9 1.3-8.6 0.8-15.6-2.8-15.3-69.7-17.7-81.8l-4.8-13.2-2.3-3.3c-16.3-25.3-32.1-70.3-37.6-95-1.4-2-2.2-8.1-3.6-10.1l-9.4-13.3c-1.2-1.7-25.1-32.5-25.1-32.5-52-59-105.4-117.6-154.2-179.2"/> <path class="st5" d="m833.2-95.2c4.7 78.5 4 157.7 4.5 236.3 0 0 2.7 38.9 3 41l2 16.3c0.3 2.4 3.7 7.5 4 9.9 12.3 22 30.6 66.1 35.3 95.8l0.5 3.9 5.2 13c6.3 10.7 51.1 60.2 41.3 72.8-1.7 2.2-4.8 5.3-7 5.1-16.7-1.8-40.3-49.6-59.9-64.9-1-0.8-1.9-1-4.3-0.7s-0.1 13-0.1 13c16.3 38.4 30.8 67.1 41 99.2 6.6 20.7-20.8 42.7-64.6-83.3-10.2-21.1-19-17.8-20-7.9 1.1 40.3 6.8 78 8.6 116 1.2 24.2-21.8 25.9-26.6-1.9-6.1-34.8-12.3-67.8-14.7-103-0.4-5.2-2.8-7.9-5.9-7.5s-2.6 0.6-5.8 4.7-2.2 7.8-3.4 14.5c-22.9 131.3-60.1 116.1-21.6-27.7 2.6-14.3-3.3-94.5-22-46-3.5 8.8-6.3 17.8-8.6 26.9-4.5 22.1-52.1 56.1-39.2 13.3 6.2-7.8 17.7-41.2 20-51.6-3.7-29.6 25.3-72.1 40.7-91.8 17.6-22.5-14.8-221.8-21.9-279.2-0.2-1.3 118.3-16.1 118.3-16.1"/> <path class="st5" d="m1373 1520.2s-98.2 68-99.1 66.7c-32.9-47.6-141.6-217.7-169.8-222.8-24.6-4.5-74.5-16.8-91.5-41.4-8.7-6.2-39.5-23.4-49.3-25.1-38.1-23.3 20-29.7 38.1-16.2 7.8 5.3 15.9 10.1 24.4 14.3 46.3 23.7-2.8-40.1-14.3-49-124.6-81.5-107-117.7-2.4-35 5.4 4.2 7.1 7.7 12.2 8.6s5 1.4 7.5-0.4 2.5-5.4-0.7-9.5c-21.7-27.8-39-56.5-57.7-86.6-14.9-24 3.3-38 18.6-19.1 24 29.5 44.9 61.4 70.9 92.2 7.3 6.7 16.2 3.3 9.7-19.2-51.3-123.2-16.2-125-7.3-105.1 13.8 30.7 22.2 61.8 35.6 101.3 0 0 6.7 11 8.8 9.6s2.5-2.1 2.7-3.3c4.5-24.5-9.8-75.8 1.4-88.3 1.5-1.6 5.9-1.3 8.6-0.8 15.7 2.8 15.3 69.7 17.7 81.8l4.8 13.2 2.3 3.3c16.3 25.3 32.1 70.3 37.6 95 1.4 2 2.2 8.1 3.6 10.1l9.3 13.5c1.2 1.7 25.1 32.5 25.1 32.5 52 59 105.3 117.6 154.2 179.2"/> <path class="st5" d="m772.5 1752c-4.7-78.5-4-157.7-4.5-236.3 0 0-2.7-38.9-3-41l-2-16.3c-0.3-2.4-3.7-7.5-4-9.9-12.3-22.1-30.5-66.1-35.3-95.8l-0.5-3.9-5.2-13c-6.3-10.7-51.1-60.2-41.3-72.8 1.7-2.2 4.8-5.3 7-5.1 16.7 1.8 40.3 49.6 59.9 64.9 1 0.8 1.9 1 4.3 0.7s0.1-13 0.1-13c-16.3-38.4-30.8-67.1-41-99.2-6.6-20.7 20.8-42.7 64.6 83.3 10.2 21.1 19 17.8 20 7.9-1.1-40.3-6.8-78-8.6-116-1.2-24.2 21.8-25.9 26.6 1.9 6.1 34.8 12.3 67.8 14.7 103 0.4 5.2 2.8 7.9 5.9 7.5s2.6-0.6 5.8-4.7 2.2-7.8 3.4-14.5c22.9-131.3 60.1-116.1 21.6 27.7-2.6 14.3 3.3 94.5 22 46 3.5-8.8 6.3-17.8 8.6-26.9 4.5-22.1 52.1-56.1 39.2-13.3-6.2 7.8-17.7 41.2-20 51.6 3.7 29.6-25.3 72.1-40.7 91.8-17.6 22.5 14.8 221.8 21.9 279.2 0.2 1.6-118.3 16.3-118.3 16.3"/> <path class="st5" d="m-31 1276.5s-50.1-108.5-48.7-109.1c52.6-24.3 238.8-102 248.6-128.9 8.6-23.5 29.4-70.5 56.5-83 7.6-7.5 29.9-34.9 33.3-44.3 29.5-33.5 25.8 24.8 9.4 40.3-6.6 6.7-12.7 13.9-18.3 21.4-31.3 41.5 40 4.1 50.7-5.6 101.7-108.7 134.3-85.2 34.9 3.7-5.1 4.6-8.8 5.7-10.6 10.6s-2.2 4.7-0.9 7.4 4.9 3.4 9.5 1c31.1-16.6 62.4-28.7 95.2-41.9 26.2-10.6 36.8 9.8 15.7 21.6-33.2 18.6-68.2 33.6-103 54-7.9 6.1-6 15.4 17.3 12.8 130.1-29.3 125.9 5.5 104.8 10.9-32.6 8.3-64.7 11.2-105.9 17.6 0 0-12 4.7-11 7s1.6 2.8 2.8 3.3c23.4 8.6 76.4 3.4 86.8 16.6 1.3 1.7 0.3 6.1-0.7 8.6-5.5 14.9-71.3 3.1-83.6 3.4l-13.8 2.4-3.6 1.7c-27.7 11.7-74.8 19.5-100 20.7-2.2 1-8.4 0.8-10.5 1.8l-14.9 6.9c-1.9 0.9-36.4 19.1-36.4 19.1-67 41.1-133.9 83.6-203 121.1"/> <path class="st5" d="m-156.1 645.2c78.1 8.8 156.1 23.2 233.6 36.2 0 0 38.8 4 40.9 4.1l16.4 0.8c2.4 0.1 8.1-2.4 10.4-2.3 23.9-8.3 70.4-18.7 100.5-18.3l4 0.2 13.7-3c11.6-4.3 68.1-40 78.8-28.2 1.8 2 4.4 5.7 3.9 7.8-4.7 16.1-55.8 31.2-74.2 47.9-1 0.9-1.3 1.7-1.4 4.1s12.8 2.4 12.8 2.4c40.6-9.5 71.4-18.8 104.8-23.3 21.5-2.9 38.5 27.8-93.1 49.4-22.5 6.4-20.8 15.7-11.2 18.4 39.9 5.8 78 6.7 115.7 11.5 24 3 21.8 25.9-6.4 25.9-35.4 0-68.9 0.5-104-3.2-5.1-0.5-8.3 1.4-8.4 4.5s0.1 2.7 3.6 6.5 7.3 3.5 13.7 5.8c125.4 45.2 104 79.2-31 16.5-13.6-5-93.7-13.1-49.1 13.8 8 4.9 16.4 9.3 25 13.1 21 8.2 46.3 61 6.4 40.9-6.6-7.4-37.6-24.5-47.4-28.6-29.8-1.5-66.7-37.3-83.5-55.8-19.2-21.2-221-23.6-278.8-26.4-1.6-0.1 4.3-119.4 4.3-119.4"/> </g> </svg>